Coordinates
version=1
nRows=29
nColumns=24
inDegrees=yes

Units are S.I. units (second, meters, Newtons, ...)
Angles are in degrees.

endheader
time	pelvis_tilt	pelvis_list	pelvis_rotation	pelvis_tx	pelvis_ty	pelvis_tz	hip_flexion_r	hip_adduction_r	hip_rotation_r	knee_angle_r	ankle_angle_r	subtalar_angle_r	mtp_angle_r	hip_flexion_l	hip_adduction_l	hip_rotation_l	knee_angle_l	ankle_angle_l	subtalar_angle_l	mtp_angle_l	lumbar_extension	lumbar_bending	lumbar_rotation
      0.76633333	     -1.38205277	     -4.57694893	      6.19237788	     -0.34943243	      0.90831973	      0.31995460	     13.10147910	      9.75787694	     -2.65931745	    -21.39251425	      9.72097918	     -5.08938315	      1.93551721	     12.24302143	     -8.84453300	     -3.17531153	    -67.43667470	     -0.86288006	     -8.33183921	      2.41298728	     -3.13752256	      7.36722700	     -3.35555025
      0.77050000	     -1.43828616	     -4.40327184	      6.14712105	     -0.34423188	      0.90946253	      0.32000752	     12.51102047	      9.62252818	     -2.52308391	    -20.87691754	      9.75235153	     -5.00431934	      1.93108854	     12.94750352	     -8.53333789	     -3.30275342	    -67.12300981	     -0.24666888	     -8.52637506	      2.38990148	     -3.09357951	      7.18422491	     -3.27978847
      0.77466667	     -1.48584991	     -4.22081849	      6.08594406	     -0.33904995	      0.91058763	      0.32008716	     11.91252052	      9.47975422	     -2.37808952	    -20.36272614	      9.77636178	     -4.93287512	      1.92642886	     13.62113555	     -8.21550663	     -3.44937597	    -66.73787643	      0.35891104	     -8.69518336	      2.36576313	     -3.07197333	      6.98548510	     -3.15130236
      0.77883333	     -1.49827768	     -4.02753654	      5.99986233	     -0.33389969	      0.91174376	      0.32020052	     11.27319913	      9.33477562	     -2.18883261	    -19.84013930	      9.77985900	     -4.87331530	      1.91788531	     14.23002481	     -7.89157268	     -3.61841001	    -66.27805800	      0.95359419	     -8.82479244	      2.31091526	     -3.14522119	      6.76790818	     -2.87961044
      0.78300000	     -1.48594073	     -3.83785796	      5.90502676	     -0.32869054	      0.91291654	      0.32032620	     10.58415545	      9.19487957	     -2.00766405	    -19.27263364	      9.79792979	     -4.82010420	      1.90744750	     14.78491525	     -7.59233832	     -3.82832618	    -65.74147158	      1.47810571	     -8.90478243	      2.22656726	     -3.18662088	      6.56419962	     -2.56267298
      0.78716667	     -1.51855243	     -3.64203894	      5.80167315	     -0.32352546	      0.91397317	      0.32043972	      9.96746382	      9.03346104	     -1.86603128	    -18.74552627	      9.78850176	     -4.72259784	      1.90356749	     15.37703766	     -7.27317540	     -4.03523519	    -65.15074031	      2.02421033	     -8.99747957	      2.20416572	     -3.17201504	      6.34521203	     -2.45417939
      0.79133333	     -1.47010345	     -3.42564991	      5.67186271	     -0.31836782	      0.91514327	      0.32058654	      9.24646309	      8.86376930	     -1.65675717	    -18.19021438	      9.79089623	     -4.64282301	      1.89877466	     15.83929523	     -6.94175449	     -4.26178581	    -64.46362634	      2.52565362	     -9.01952857	      2.15743042	     -3.31653299	      6.12844540	     -2.18704516
      0.79550000	     -1.41898318	     -3.24133106	      5.53806676	     -0.31317149	      0.91625582	      0.32079002	      8.50528504	      8.73144391	     -1.45977588	    -17.58514568	      9.76766940	     -4.57741065	      1.89247259	     16.29203177	     -6.67622335	     -4.52756242	    -63.73825658	      2.99665385	     -9.00700121	      2.06436185	     -3.41568491	      5.92231591	     -1.82205271
      0.79966667	     -1.36502222	     -3.02341826	      5.39064862	     -0.30800359	      0.91733574	      0.32097938	      7.77946276	      8.55435761	     -1.27842331	    -17.02580063	      9.78305444	     -4.49786248	      1.89063364	     16.71153055	     -6.36554277	     -4.79977657	    -62.93504002	      3.43798034	     -8.98187070	      2.01255357	     -3.52984436	      5.67664043	     -1.61512145
      0.80383333	     -1.29919783	     -2.81173974	      5.22802088	     -0.30283959	      0.91838390	      0.32119950	      7.03767359	      8.38404550	     -1.08623752	    -16.45151950	      9.76903212	     -4.40716991	      1.89021263	     17.09966821	     -6.07192768	     -5.09018208	    -62.07602904	      3.86686361	     -8.92662587	      1.96494214	     -3.66308263	      5.44442753	     -1.36160682
      0.80800000	     -1.22118369	     -2.60894547	      5.05274854	     -0.29769168	      0.91939928	      0.32143884	      6.28206945	      8.22144999	     -0.88069653	    -15.86700025	      9.74544928	     -4.32298268	      1.89183172	     17.45761053	     -5.79727762	     -5.39230200	    -61.16109716	      4.26671810	     -8.83879002	      1.91214126	     -3.81278950	      5.22611273	     -1.07087996
      0.81216667	     -1.13972141	     -2.39994665	      4.86738830	     -0.29254883	      0.92035982	      0.32170275	      5.52788418	      8.04866031	     -0.68437318	    -15.29003177	      9.73033157	     -4.23548573	      1.89585181	     17.79368550	     -5.52381654	     -5.71040043	    -60.19246913	      4.63677286	     -8.73271678	      1.86758784	     -3.96363792	      4.98967867	     -0.80696495
      0.81633333	     -1.04915210	     -2.19013360	      4.66710276	     -0.28741523	      0.92127962	      0.32199075	      4.76887297	      7.87142455	     -0.48405954	    -14.71877953	      9.71387738	     -4.14304164	      1.90229938	     18.09896471	     -5.25821303	     -6.04738045	    -59.16615572	      4.97871681	     -8.59909615	      1.83055387	     -4.12604099	      4.75215319	     -0.53739513
      0.82050000	     -0.95348771	     -1.99094034	      4.45956383	     -0.28228955	      0.92213914	      0.32229024	      4.00703199	      7.70134205	     -0.28852476	    -14.14561795	      9.69495181	     -4.04759289	      1.91172519	     18.38642538	     -5.01068654	     -6.39052892	    -58.09652752	      5.29123201	     -8.44740933	      1.79674175	     -4.29939773	      4.52840642	     -0.25334855
      0.82466667	     -0.87498402	     -1.77999416	      4.23136814	     -0.27719386	      0.92291527	      0.32260045	      3.28829270	      7.50826442	     -0.10402948	    -13.61792095	      9.66271938	     -3.94268844	      1.92009178	     18.66990573	     -4.75184955	     -6.75078315	    -56.96615606	      5.57397955	     -8.27905364	      1.77697917	     -4.44877036	      4.29549344	     -0.02894152
      0.82883333	     -0.75766395	     -1.60603129	      4.01587923	     -0.27208090	      0.92366354	      0.32293756	      2.49902950	      7.35986964	      0.09338617	    -13.02058095	      9.66077730	     -3.83559999	      1.93745519	     18.91068480	     -4.54790564	     -7.10255258	    -55.81372332	      5.83104750	     -8.09102590	      1.75091121	     -4.64586243	      4.08989390	      0.31209085
      0.83300000	     -0.66432516	     -1.42479541	      3.78182331	     -0.26699843	      0.92431533	      0.32328911	      1.75946007	      7.19300352	      0.27966089	    -12.46710734	      9.64246587	     -3.71886978	      1.95803092	     19.15835839	     -4.33841827	     -7.47021708	    -54.60824061	      6.05569122	     -7.89290682	      1.72879918	     -4.81657649	      3.87124326	      0.60700855
      0.83716667	     -0.57499069	     -1.25465267	      3.54140335	     -0.26192669	      0.92488495	      0.32365444	      1.03287388	      7.03209060	      0.45364967	    -11.92461658	      9.63255271	     -3.59498835	      1.98284590	     19.39820267	     -4.14574055	     -7.84128637	    -53.36308288	      6.24776052	     -7.68765626	      1.71167320	     -4.98113653	      3.67000790	      0.89563301
      0.84133333	     -0.50611835	     -1.08244022	      3.28649134	     -0.25687324	      0.92536035	      0.32402193	      0.35202975	      6.85782619	      0.60607964	    -11.42619625	      9.60847052	     -3.45242378	      2.00334594	     19.64118840	     -3.95103499	     -8.22214052	    -52.06570400	      6.40040194	     -7.47554254	      1.70258243	     -5.12024150	      3.46385919	      1.12518179
      0.84550000	     -0.42321472	     -0.93238962	      3.03997978	     -0.25181647	      0.92577901	      0.32439230	     -0.35715873	      6.70452238	      0.75150033	    -10.89277792	      9.60625670	     -3.29015212	      2.02924288	     19.86269960	     -3.78593641	     -8.59488131	    -50.73987705	      6.52873960	     -7.26634081	      1.69602713	     -5.27397299	      3.28095815	      1.40379120
      0.84966667	     -0.33995744	     -0.81617298	      2.80402179	     -0.24676340	      0.92609923	      0.32475644	     -1.07315396	      6.58436704	      0.89309797	    -10.33999332	      9.62944235	     -3.11354386	      2.07441262	     20.08640428	     -3.65963210	     -8.95227101	    -49.40579093	      6.64420091	     -7.05311246	      1.69000632	     -5.43145512	      3.13297829	      1.76343980
      0.85383333	     -0.27945458	     -0.69474473	      2.55431146	     -0.24172522	      0.92632866	      0.32512335	     -1.74130066	      6.44808818	      1.00934860	     -9.83081893	      9.63920145	     -2.91877789	      2.12406305	     20.31265708	     -3.52800959	     -9.32213114	    -48.01704155	      6.71372191	     -6.84634723	      1.68805759	     -5.55886311	      2.98034555	      2.05166837
      0.85800000	     -0.23111544	     -0.58695481	      2.30638803	     -0.23669122	      0.92646338	      0.32548691	     -2.39098876	      6.31964216	      1.10463671	     -9.32798652	      9.66274656	     -2.70135452	      2.17721770	     20.54229717	     -3.41218411	     -9.68801569	    -46.59784135	      6.75305881	     -6.64155695	      1.69007346	     -5.67199650	      2.84066947	      2.32604648
      0.86216667	     -0.19130873	     -0.49495641	      2.06265478	     -0.23165607	      0.92651070	      0.32583125	     -3.02564288	      6.20163941	      1.17844769	     -8.83455301	      9.69219545	     -2.45459659	      2.23895056	     20.77184687	     -3.31110979	    -10.04494179	    -45.15198219	      6.76671259	     -6.44766614	      1.69636549	     -5.77189692	      2.71642395	      2.60956628
      0.86633333	     -0.18059992	     -0.40847069	      1.81136311	     -0.22662761	      0.92645116	      0.32618080	     -3.61078090	      6.08277275	      1.22964821	     -8.37408786	      9.70272598	     -2.21199807	      2.28681562	     21.01724924	     -3.22024998	    -10.41721033	    -43.66783265	      6.73802057	     -6.25369055	      1.70289748	     -5.83181411	      2.59857335	      2.82690899
      0.87050000	     -0.16310529	     -0.34406707	      1.57509065	     -0.22158266	      0.92631975	      0.32650567	     -4.21338264	      5.98351444	      1.26397831	     -7.89330002	      9.74724154	     -1.92624856	      2.34233244	     21.24897351	     -3.14929200	    -10.76789834	    -42.16727014	      6.69928774	     -6.07621089	      1.71293967	     -5.90225413	      2.50482733	      3.08501084
      0.87466667	     -0.15793207	     -0.29278637	      1.34482945	     -0.21654033	      0.92609554	      0.32680428	     -4.79574977	      5.89295743	      1.27510196	     -7.42493690	      9.80903183	     -1.61308809	      2.40789817	     21.48538961	     -3.08758342	    -11.10951577	    -40.64343469	      6.63898218	     -5.91063774	      1.72722458	     -5.95952223	      2.42867692	      3.35713345
      0.87883333	     -0.15895947	     -0.26005901	      1.13055594	     -0.21148291	      0.92578154	      0.32707370	     -5.37414122	      5.81863123	      1.26624284	     -6.95481809	      9.91620810	     -1.24098940	      2.50753390	     21.72241658	     -3.03748894	    -11.41901955	    -39.10618911	      6.57405183	     -5.76917662	      1.75393437	     -6.01510700	      2.37324550	      3.67277336
      0.88300000	     -0.18214200	     -0.23006860	      0.91213931	     -0.20640891	      0.92537336	      0.32733442	     -5.91338411	      5.74208496	      1.22374531	     -6.51571986	     10.00563861	     -0.86466597	      2.62761451	     21.96708019	     -2.99412655	    -11.75003223	    -37.54080615	      6.48194918	     -5.62902005	      1.79074033	     -6.02842381	      2.31928643	      3.94307368
